<svg width="21" height="21" viewBox="0 0 21 21" fill="none" xmlns="http://www.w3.org/2000/svg">
<path d="M10.5 0C4.6996 0 0 4.6996 0 10.5C0 16.3004 4.6996 21 10.5 21C16.3004 21 21 16.3004 21 10.5C21 4.6996 16.3004 0 10.5 0ZM15.6569 7.19335L13.9337 15.3139C13.8067 15.8897 13.4637 16.0294 12.9853 15.7585L10.3603 13.8236L9.09435 15.0429C8.95464 15.1827 8.83609 15.3012 8.56512 15.3012L8.75141 12.6296L13.6161 8.23488C13.8278 8.04859 13.5696 7.94274 13.2901 8.12903L7.27802 11.9141L4.68689 11.1054C4.12379 10.9276 4.11109 10.5423 4.80544 10.2714L14.9286 6.36774C15.3986 6.19839 15.8093 6.48206 15.6569 7.19335Z" fill="black"/>
</svg>
